<svg width="681" height="152" viewBox="0 0 681 152" fill="none" xmlns="http://www.w3.org/2000/svg">
<path d="M142.5 61.7998L183.5 108.8H137.5M71 108.8H137.5M109 77.5L137.5 108.8" stroke="url(#paint0_linear_104_42)" stroke-width="14"/>
<path fill-rule="evenodd" clip-rule="evenodd" d="M76 102C77.6475 102 79.2593 101.847 80.8218 101.554L91.9508 109.609L91.9428 109.896L92.211 109.798L94.5156 111.466C88.9794 114.362 82.681 116 76 116C53.9086 116 36 98.0914 36 76C36 53.9086 53.9086 36 76 36C98.0914 36 116 53.9086 116 76C116 76.1766 115.999 76.3528 115.997 76.5289L103.966 82.6351L101.681 80.0856C101.891 78.7546 102 77.3901 102 76C102 61.6406 90.3594 50 76 50C61.6406 50 50 61.6406 50 76C50 90.3594 61.6406 102 76 102Z" fill="url(#paint1_linear_104_42)"/>
<path fill-rule="evenodd" clip-rule="evenodd" d="M129.535 107.292C118.774 125.663 98.8279 138 76 138C41.7583 138 14 110.242 14 76C14 41.7583 41.7583 14 76 14C106.985 14 132.661 36.7295 137.265 66.4246L150.353 60.1868C143.076 25.8027 112.551 0 76 0C34.0264 0 0 34.0264 0 76C0 117.974 34.0264 152 76 152C103.493 152 127.576 137.402 140.921 115.534L129.535 107.292Z" fill="url(#paint2_linear_104_42)"/>
<path d="M232.438 29V120H216.75V29H232.438ZM269.562 68.8125V81.25H228.438V68.8125H269.562ZM274.75 29V41.5H228.438V29H274.75ZM321.75 106.438V74.1875C321.75 71.7708 321.312 69.6875 320.438 67.9375C319.562 66.1875 318.229 64.8333 316.438 63.875C314.688 62.9167 312.479 62.4375 309.812 62.4375C307.354 62.4375 305.229 62.8542 303.438 63.6875C301.646 64.5208 300.25 65.6458 299.25 67.0625C298.25 68.4792 297.75 70.0833 297.75 71.875H282.75C282.75 69.2083 283.396 66.625 284.688 64.125C285.979 61.625 287.854 59.3958 290.312 57.4375C292.771 55.4792 295.708 53.9375 299.125 52.8125C302.542 51.6875 306.375 51.125 310.625 51.125C315.708 51.125 320.208 51.9792 324.125 53.6875C328.083 55.3958 331.188 57.9792 333.438 61.4375C335.729 64.8542 336.875 69.1458 336.875 74.3125V104.375C336.875 107.458 337.083 110.229 337.5 112.688C337.958 115.104 338.604 117.208 339.438 119V120H324C323.292 118.375 322.729 116.312 322.312 113.812C321.938 111.271 321.75 108.812 321.75 106.438ZM323.938 78.875L324.062 88.1875H313.25C310.458 88.1875 308 88.4583 305.875 89C303.75 89.5 301.979 90.25 300.562 91.25C299.146 92.25 298.083 93.4583 297.375 94.875C296.667 96.2917 296.312 97.8958 296.312 99.6875C296.312 101.479 296.729 103.125 297.562 104.625C298.396 106.083 299.604 107.229 301.188 108.062C302.812 108.896 304.771 109.312 307.062 109.312C310.146 109.312 312.833 108.688 315.125 107.438C317.458 106.146 319.292 104.583 320.625 102.75C321.958 100.875 322.667 99.1042 322.75 97.4375L327.625 104.125C327.125 105.833 326.271 107.667 325.062 109.625C323.854 111.583 322.271 113.458 320.312 115.25C318.396 117 316.083 118.438 313.375 119.562C310.708 120.688 307.625 121.25 304.125 121.25C299.708 121.25 295.771 120.375 292.312 118.625C288.854 116.833 286.146 114.438 284.188 111.438C282.229 108.396 281.25 104.958 281.25 101.125C281.25 97.5417 281.917 94.375 283.25 91.625C284.625 88.8333 286.625 86.5 289.25 84.625C291.917 82.75 295.167 81.3333 299 80.375C302.833 79.375 307.208 78.875 312.125 78.875H323.938ZM368.75 52.375V120H353.625V52.375H368.75ZM352.625 34.625C352.625 32.3333 353.375 30.4375 354.875 28.9375C356.417 27.3958 358.542 26.625 361.25 26.625C363.917 26.625 366.021 27.3958 367.562 28.9375C369.104 30.4375 369.875 32.3333 369.875 34.625C369.875 36.875 369.104 38.75 367.562 40.25C366.021 41.75 363.917 42.5 361.25 42.5C358.542 42.5 356.417 41.75 354.875 40.25C353.375 38.75 352.625 36.875 352.625 34.625ZM437.562 108V120H387.188V108H437.562ZM436.188 61.75L392.312 120H382.562V110.312L426.188 52.375H436.188V61.75ZM430.375 52.375V64.375H383.312V52.375H430.375ZM488.562 29V120H473V29H488.562ZM517.125 29V41.5H444.688V29H517.125ZM557.375 106.438V74.1875C557.375 71.7708 556.938 69.6875 556.062 67.9375C555.188 66.1875 553.854 64.8333 552.062 63.875C550.312 62.9167 548.104 62.4375 545.438 62.4375C542.979 62.4375 540.854 62.8542 539.062 63.6875C537.271 64.5208 535.875 65.6458 534.875 67.0625C533.875 68.4792 533.375 70.0833 533.375 71.875H518.375C518.375 69.2083 519.021 66.625 520.312 64.125C521.604 61.625 523.479 59.3958 525.938 57.4375C528.396 55.4792 531.333 53.9375 534.75 52.8125C538.167 51.6875 542 51.125 546.25 51.125C551.333 51.125 555.833 51.9792 559.75 53.6875C563.708 55.3958 566.812 57.9792 569.062 61.4375C571.354 64.8542 572.5 69.1458 572.5 74.3125V104.375C572.5 107.458 572.708 110.229 573.125 112.688C573.583 115.104 574.229 117.208 575.062 119V120H559.625C558.917 118.375 558.354 116.312 557.938 113.812C557.562 111.271 557.375 108.812 557.375 106.438ZM559.562 78.875L559.688 88.1875H548.875C546.083 88.1875 543.625 88.4583 541.5 89C539.375 89.5 537.604 90.25 536.188 91.25C534.771 92.25 533.708 93.4583 533 94.875C532.292 96.2917 531.938 97.8958 531.938 99.6875C531.938 101.479 532.354 103.125 533.188 104.625C534.021 106.083 535.229 107.229 536.812 108.062C538.438 108.896 540.396 109.312 542.688 109.312C545.771 109.312 548.458 108.688 550.75 107.438C553.083 106.146 554.917 104.583 556.25 102.75C557.583 100.875 558.292 99.1042 558.375 97.4375L563.25 104.125C562.75 105.833 561.896 107.667 560.688 109.625C559.479 111.583 557.896 113.458 555.938 115.25C554.021 117 551.708 118.438 549 119.562C546.333 120.688 543.25 121.25 539.75 121.25C535.333 121.25 531.396 120.375 527.938 118.625C524.479 116.833 521.771 114.438 519.812 111.438C517.854 108.396 516.875 104.958 516.875 101.125C516.875 97.5417 517.542 94.375 518.875 91.625C520.25 88.8333 522.25 86.5 524.875 84.625C527.542 82.75 530.792 81.3333 534.625 80.375C538.458 79.375 542.833 78.875 547.75 78.875H559.562ZM604.375 24V120H589.25V24H604.375ZM636.062 24V120H620.938V24H636.062ZM678.062 52.375L648.625 85L632.5 101.5L628.562 88.75L640.75 73.6875L659.875 52.375H678.062ZM663.125 120L641.188 88.25L650.688 77.6875L680.562 120H663.125Z" fill="url(#paint3_linear_104_42)"/>
<defs>
<linearGradient id="paint0_linear_104_42" x1="71" y1="133.5" x2="175" y2="34.5" gradientUnits="userSpaceOnUse">
<stop stop-color="#52A0FF"/>
<stop offset="1" stop-color="white"/>
</linearGradient>
<linearGradient id="paint1_linear_104_42" x1="14.5" y1="92.5" x2="64.5" y2="0.999997" gradientUnits="userSpaceOnUse">
<stop stop-color="#52A0FF"/>
<stop offset="1" stop-color="white"/>
</linearGradient>
<linearGradient id="paint2_linear_104_42" x1="13.5" y1="121.5" x2="150" y2="-8.15119e-06" gradientUnits="userSpaceOnUse">
<stop offset="0.143045" stop-color="#52A0FF"/>
<stop offset="1" stop-color="white"/>
</linearGradient>
<linearGradient id="paint3_linear_104_42" x1="81.7584" y1="445.531" x2="608.293" y2="49.5246" gradientUnits="userSpaceOnUse">
<stop offset="0.199003" stop-color="#52A0FF"/>
<stop offset="0.71294" stop-color="white"/>
</linearGradient>
</defs>
</svg>
